<svg width="189" height="54" viewBox="0 0 189 54" fill="none" xmlns="http://www.w3.org/2000/svg">
<path d="M35.5032 17.183C35.505 17.1845 35.5065 17.1863 35.5068 17.1895C36.9878 21.1605 37.697 26.0442 37.2596 32.0408L37.1895 31.9761C31.8148 5.898 8.85611 4.88395 7.90137 4.85196C28.3714 3.95258 35.3292 16.8545 35.5032 17.183Z" fill="url(#paint0_linear_1_1781)"/>
<path d="M37.1895 31.9761C28.9311 10.0682 7.90137 4.85198 7.90137 4.85198C8.85611 4.88397 31.8148 5.89803 37.1895 31.9761Z" fill="#AF4859"/>
<path d="M38.7286 29.8826L38.766 29.8258C56.1749 23.2196 54.3261 7.25432 54.2417 6.59111C54.2431 6.58644 54.242 6.57996 54.2391 6.57601C54.2388 6.57385 54.2388 6.57385 54.2388 6.57385C54.2384 6.5717 54.2381 6.56954 54.2381 6.56954L54.1464 6.50699C40.0651 9.25618 37.4507 19.1792 37.3875 19.4297C37.3875 19.4164 37.39 19.4049 37.39 19.392C37.4137 19.2098 37.4378 19.0315 37.4647 18.8553C37.4831 18.7356 37.5032 18.6156 37.5219 18.498C37.5496 18.3546 37.5751 18.2119 37.6049 18.0681L37.6585 17.8125C37.6779 17.7277 37.6951 17.6436 37.7146 17.5587C37.734 17.4739 37.7552 17.3869 37.7767 17.3017C37.7983 17.2165 37.8199 17.1317 37.8418 17.0487C37.8623 16.9703 37.8853 16.8941 37.9058 16.8157C37.9184 16.7697 37.9306 16.7237 37.9435 16.6795C37.9683 16.6004 37.991 16.522 38.014 16.4455C38.0765 16.246 38.1402 16.0504 38.2085 15.8588C38.2354 15.7794 38.2627 15.7025 38.2922 15.6248C38.3195 15.5475 38.349 15.4702 38.3785 15.3948C38.4356 15.2423 38.4971 15.0914 38.5593 14.9426C38.5917 14.8689 38.6236 14.7955 38.6535 14.72C38.6697 14.6845 38.688 14.646 38.7042 14.6104C38.7203 14.5748 38.7365 14.5371 38.7527 14.5011C38.8278 14.3368 38.9033 14.1773 38.9817 14.0191C39.0169 13.9494 39.05 13.8825 39.0852 13.8128C39.1291 13.7286 39.1751 13.6442 39.2186 13.5597C39.3088 13.3954 39.3997 13.2329 39.4928 13.0726C39.5396 12.9925 39.5863 12.9145 39.6352 12.8336C39.6593 12.7922 39.6855 12.7484 39.7121 12.7088C39.7171 12.6991 39.7225 12.6916 39.7276 12.6822C39.8954 12.4105 40.0734 12.1463 40.2527 11.8903C40.3351 11.7713 40.4199 11.6542 40.5065 11.5366C40.5741 11.4486 40.641 11.3587 40.7107 11.2703C40.7323 11.2404 40.7578 11.2077 40.7819 11.1772C40.866 11.0711 40.9505 10.9651 41.0375 10.8605L41.0393 10.858C41.1241 10.7541 41.2111 10.6516 41.2984 10.5495C41.306 10.5416 41.3114 10.5341 41.3189 10.5265C41.4117 10.419 41.5033 10.3162 41.5968 10.2131C41.6715 10.1304 41.7488 10.0477 41.8261 9.96684C41.8574 9.92874 41.8912 9.89243 41.9275 9.85792C41.999 9.78244 42.0691 9.70947 42.1432 9.63578C42.1601 9.6178 42.1791 9.59911 42.1964 9.58329C42.287 9.48947 42.3804 9.39709 42.4721 9.30974C42.4757 9.3047 42.4818 9.30147 42.4836 9.29895C42.5616 9.22239 42.6421 9.14762 42.7226 9.07321C42.7722 9.0254 42.8244 8.97975 42.8743 8.9341C42.9584 8.8543 43.0454 8.77881 43.1324 8.70296C43.2208 8.62244 43.3136 8.54156 43.407 8.46464C43.498 8.38591 43.5911 8.30719 43.6845 8.23027C43.7216 8.20007 43.7608 8.16951 43.7996 8.1368C43.87 8.08145 43.9401 8.02393 44.0124 7.96606C44.3841 7.67274 44.7644 7.39307 45.1454 7.12923C45.217 7.08034 45.2867 7.03397 45.3579 6.98472C45.9661 6.5717 46.5826 6.19713 47.1994 5.85313C47.2742 5.81035 47.3489 5.76973 47.4262 5.72839C47.6793 5.58856 47.9334 5.4552 48.1861 5.32831C48.2857 5.27691 48.3856 5.22586 48.4834 5.17697C48.7854 5.02708 49.0869 4.88616 49.3849 4.75208C49.4791 4.70823 49.5722 4.66905 49.6646 4.62771C49.7343 4.59464 49.8044 4.56553 49.8749 4.53641C49.963 4.49579 50.0499 4.45984 50.1366 4.4239C50.2768 4.36386 50.4155 4.30851 50.5521 4.25351C50.6636 4.20678 50.7757 4.16472 50.8857 4.12051C50.9953 4.07629 51.1053 4.0346 51.2157 3.99254C51.3239 3.953 51.4317 3.91166 51.5381 3.87248C51.6463 3.83294 51.7502 3.79411 51.857 3.75709C51.9634 3.72006 52.0676 3.6834 52.1701 3.64745C52.1845 3.64062 52.2017 3.6381 52.2161 3.63127C52.513 3.53062 52.7955 3.43896 53.0723 3.35017C53.0745 3.34981 53.0745 3.34982 53.0745 3.34982C53.1708 3.3189 53.2654 3.2905 53.3581 3.26246C53.5594 3.1992 53.7557 3.14348 53.9455 3.091C54.0213 3.06979 54.0972 3.04679 54.1708 3.02594C54.5149 2.93104 54.8366 2.84836 55.1288 2.77503C55.1716 2.76604 55.2137 2.7549 55.2564 2.74556C55.3582 2.7204 55.4538 2.69846 55.5472 2.6769C55.613 2.6618 55.6749 2.64742 55.7385 2.63304C55.9236 2.59207 56.0922 2.55648 56.2435 2.5252C56.2949 2.51478 56.3417 2.50507 56.3866 2.49788C56.6576 2.44324 56.8489 2.41233 56.9474 2.39436L56.9495 2.394C56.9772 2.51082 57.0308 2.74915 57.0998 3.09496C57.1102 3.14636 57.121 3.19956 57.1296 3.25312C57.2144 3.68483 57.3133 4.25746 57.4053 4.93901C57.4283 5.10939 57.4502 5.28661 57.4733 5.47029C57.4837 5.5634 57.4945 5.6565 57.5052 5.75176C57.5247 5.94048 57.5451 6.13782 57.5646 6.33948C57.6393 7.14756 57.6936 8.04694 57.7051 9.0103C57.7091 9.13073 57.7087 9.25222 57.7083 9.37336C57.7083 9.62031 57.704 9.86763 57.6983 10.12C57.6965 10.2458 57.6947 10.372 57.6889 10.5006L57.6893 10.5028C57.6677 11.0948 57.6271 11.7052 57.566 12.3256C57.5592 12.4195 57.5491 12.509 57.5376 12.6014C57.5042 12.9152 57.465 13.2326 57.419 13.5507C57.4068 13.6388 57.392 13.7247 57.3773 13.8131C57.2993 14.3149 57.2047 14.8239 57.0922 15.3315L57.0926 15.3336C57.0293 15.6104 56.9632 15.8858 56.8906 16.1619C56.8219 16.4196 56.7493 16.6806 56.6716 16.9397C56.594 17.1968 56.5099 17.4552 56.4211 17.7119C56.397 17.782 56.3729 17.8517 56.3467 17.92C55.7949 19.4635 55.0393 20.9758 54.0177 22.381C53.9207 22.5179 53.8168 22.6534 53.7107 22.7897C53.6068 22.9255 53.5005 23.0593 53.3897 23.1919C53.3344 23.258 53.2783 23.3224 53.2229 23.3885C53.1097 23.5212 52.9943 23.6524 52.8761 23.7814C52.8182 23.8458 52.7578 23.9105 52.6974 23.9734C52.6449 24.0302 52.5899 24.0855 52.5353 24.1448L52.027 24.6431C51.9699 24.6984 51.9102 24.7523 51.8505 24.8059C51.7908 24.8595 51.7315 24.9155 51.6715 24.9669C51.6122 25.0227 51.5522 25.0744 51.49 25.1262C51.3063 25.2858 51.1154 25.4422 50.9217 25.5946C50.7257 25.7473 50.5252 25.8987 50.3195 26.0443C50.2405 26.101 50.1653 26.155 50.0859 26.2096C50.0241 26.2502 49.9626 26.2934 49.8986 26.3343C49.8289 26.3807 49.7573 26.43 49.6837 26.4771C49.6114 26.5216 49.5399 26.5705 49.4658 26.6158C49.3195 26.7075 49.1693 26.8002 49.0183 26.8883C48.9435 26.9311 48.8695 26.976 48.7922 27.0173C48.7904 27.0198 48.7904 27.0198 48.7882 27.0202C46.2119 28.4854 42.9175 29.5178 38.7286 29.8826Z" fill="url(#paint1_linear_1_1781)"/>
<path d="M7.87048 4.85336L7.76048 4.96982C8.39494 24.0484 20.0563 30.5202 21.9471 31.4458C21.9665 31.4491 21.9892 31.4523 22.0086 31.4555C22.0183 31.4588 22.0312 31.4588 22.0442 31.4652H21.9892C22.1056 31.5202 22.1768 31.5526 22.1995 31.5623C22.18 31.5591 22.1639 31.5526 22.1477 31.5494C22.0506 31.5202 21.9536 31.4911 21.8594 31.462C20.4122 31.4523 11.0755 31.8829 4.75572 43.6705L4.78807 43.774L4.7913 43.7773C4.7913 43.7773 4.7913 43.7773 4.79454 43.7773C4.79777 43.7805 4.80424 43.7837 4.80748 43.7837C5.37076 44.0429 18.0714 49.6308 29.0433 38.7106C17.4207 55.4645 0.297635 45.3118 0.0032334 45.1371C-1.777e-06 45.1339 0 45.1339 0 45.1339C0.0485277 45.0465 0.132642 44.8718 0.265644 44.6288C0.285055 44.5868 0.307699 44.5447 0.333581 44.4994C0.40799 44.3636 0.492106 44.2144 0.585926 44.0494C0.618278 43.9944 0.650629 43.9394 0.682981 43.8811C0.731508 43.797 0.780038 43.7129 0.835036 43.6223C0.857682 43.5835 0.880328 43.5479 0.899739 43.5091C1.05826 43.2503 1.23009 42.9685 1.4242 42.6672C1.46302 42.6025 1.50831 42.5378 1.55037 42.4699C1.65713 42.3049 1.76713 42.1331 1.88719 41.9616C1.94219 41.8807 1.99718 41.7999 2.05542 41.7154C2.05542 41.7154 2.05542 41.7154 2.05542 41.7121C2.22365 41.476 2.39224 41.233 2.57664 40.9774C2.58635 40.9677 2.59605 40.9515 2.60576 40.9386C2.67046 40.8512 2.73517 40.7639 2.8031 40.6733C2.87104 40.5827 2.93898 40.4953 3.00692 40.4012C3.07486 40.3106 3.14603 40.22 3.21721 40.1291C3.28838 40.0352 3.36279 39.9447 3.4372 39.8505C3.51161 39.7599 3.58278 39.6661 3.66079 39.5722C3.75461 39.459 3.84843 39.3425 3.94548 39.2257C4.00695 39.1513 4.06842 39.0801 4.13312 39.009C4.18165 38.9507 4.22694 38.8893 4.28194 38.8343C4.34664 38.7566 4.41135 38.6822 4.48252 38.6046C4.69604 38.3583 4.91963 38.1125 5.15257 37.8666C5.23021 37.7889 5.30785 37.7081 5.3855 37.6268C5.57997 37.423 5.78379 37.2188 5.99084 37.0183C6.05231 36.9568 6.11377 36.8986 6.17848 36.8403C6.68676 36.3514 7.22739 35.8723 7.80038 35.4125C7.86832 35.3608 7.93302 35.3058 8.00096 35.254C8.3669 34.9657 8.74541 34.6842 9.13399 34.4154C9.21164 34.3636 9.28928 34.3151 9.36046 34.2633C9.40251 34.2374 9.44457 34.2083 9.48339 34.1824C9.58692 34.1145 9.68721 34.0498 9.79074 33.9851C9.89103 33.9204 9.99455 33.8557 10.0984 33.7942C10.1955 33.7327 10.2958 33.6713 10.3964 33.6163C10.4547 33.5807 10.5129 33.5451 10.5744 33.5095C10.6682 33.4545 10.762 33.4028 10.8594 33.3478C10.8627 33.3478 10.8659 33.3445 10.8724 33.3413C10.9824 33.2798 11.0992 33.2183 11.2157 33.1601C11.2351 33.1472 11.2609 33.1342 11.2804 33.1245C11.3742 33.0728 11.4648 33.0275 11.5589 32.9822C11.601 32.9595 11.6463 32.9369 11.6916 32.9175C11.7919 32.8689 11.8922 32.8172 11.9961 32.7719C12.1222 32.7137 12.2452 32.6554 12.3749 32.5972C12.3846 32.594 12.3943 32.5907 12.404 32.5843C12.527 32.5325 12.6503 32.4807 12.7765 32.429H12.7797C12.9026 32.3772 13.0288 32.3254 13.1553 32.2769C13.1909 32.264 13.2297 32.2478 13.2653 32.2381C13.3721 32.196 13.4756 32.1604 13.5827 32.1216C13.7186 32.0731 13.8545 32.0246 13.994 31.9825C14.292 31.8855 14.5961 31.7949 14.907 31.714C14.9167 31.714 14.9264 31.7108 14.9361 31.7075C14.9814 31.6946 15.0299 31.6816 15.0785 31.6719C15.169 31.6493 15.2564 31.6266 15.3473 31.604C15.5285 31.5619 15.71 31.5231 15.8944 31.4875C15.9883 31.4714 16.0821 31.4519 16.1763 31.4325C16.2539 31.4196 16.3251 31.4099 16.4031 31.3969C16.5778 31.3678 16.7528 31.3419 16.9308 31.3193C16.9696 31.3128 17.0117 31.3096 17.0505 31.3064C17.0893 31.2999 17.1314 31.2934 17.1702 31.2902C17.2511 31.2837 17.3287 31.274 17.4096 31.2643C17.5713 31.2481 17.7335 31.2352 17.8952 31.2255C17.9761 31.219 18.057 31.2125 18.1415 31.2093C18.2223 31.2061 18.3065 31.2028 18.3873 31.1996C18.5911 31.1899 18.7986 31.1867 19.0056 31.1867C19.0865 31.1867 19.1674 31.1899 19.2515 31.1867C19.2968 31.1899 19.3453 31.1899 19.3906 31.1931C19.4715 31.1964 19.5524 31.1964 19.6332 31.1996C19.7174 31.2028 19.8047 31.2061 19.8924 31.2125C19.983 31.2158 20.0703 31.2222 20.1581 31.2287C20.2454 31.2352 20.3295 31.2417 20.4169 31.2481L20.676 31.274C20.8216 31.2869 20.9676 31.3064 21.1132 31.3193C21.2296 31.3387 21.3493 31.3549 21.4694 31.3711C21.5276 31.3808 21.5858 31.3872 21.6473 31.4002C21.5664 31.3743 21.4823 31.3484 21.4011 31.3225C21.2393 31.2708 21.074 31.2158 20.9122 31.1608C20.7149 31.0928 20.5204 31.0217 20.3263 30.9505L19.9733 30.8146C19.8601 30.7693 19.7465 30.724 19.63 30.6787C19.5135 30.6302 19.3971 30.5817 19.2802 30.5331C19.167 30.4814 19.0505 30.4329 18.937 30.3843C18.8334 30.3358 18.7299 30.2873 18.6228 30.242C18.5613 30.2129 18.4998 30.1838 18.4416 30.1546C18.3349 30.1029 18.2313 30.0543 18.1242 30.0026C17.8586 29.8699 17.5965 29.7337 17.3406 29.5946C17.237 29.5396 17.1335 29.4814 17.0296 29.4264C16.9261 29.3681 16.8258 29.3099 16.7252 29.2517C16.5246 29.1352 16.3236 29.0151 16.1263 28.8922C16.0325 28.8307 15.9354 28.7693 15.8348 28.7078C15.7895 28.6754 15.741 28.6431 15.6924 28.614C15.6471 28.5816 15.5954 28.5493 15.5501 28.5201C15.3362 28.3778 15.1291 28.2319 14.9221 28.0863C14.8315 28.0216 14.7409 27.9569 14.6532 27.8922C14.5432 27.8145 14.4332 27.7304 14.3261 27.6463C14.1126 27.4845 13.9052 27.3192 13.7014 27.1509C13.5978 27.0668 13.4975 26.9827 13.3969 26.895C13.3419 26.853 13.2869 26.8044 13.2384 26.7591C13.2254 26.7494 13.2125 26.7397 13.2028 26.73C12.8595 26.432 12.523 26.1214 12.2024 25.8073C12.0536 25.6649 11.9076 25.519 11.762 25.3702C11.652 25.2537 11.5417 25.1405 11.4317 25.0236C11.3929 24.9848 11.354 24.9428 11.3185 24.9007C11.1858 24.7583 11.0564 24.616 10.9299 24.4701C10.9266 24.4668 10.9266 24.4668 10.9266 24.4668C10.7972 24.3212 10.6707 24.1753 10.5478 24.0297C10.5381 24.0168 10.5284 24.0071 10.5219 23.9941C10.3892 23.8421 10.2627 23.6864 10.1398 23.5311C10.0395 23.405 9.94243 23.2784 9.84538 23.1523C9.80008 23.0973 9.75479 23.0423 9.71597 22.984C9.62538 22.8676 9.5348 22.7511 9.45032 22.631C9.42768 22.5987 9.40827 22.5696 9.38562 22.5405C9.27562 22.3916 9.16886 22.2428 9.06498 22.0904C9.05851 22.0839 9.05527 22.0775 9.05204 22.071C8.96145 21.9448 8.8741 21.8151 8.78639 21.6824C8.73139 21.6015 8.6764 21.5207 8.62463 21.4365C8.53405 21.3007 8.44346 21.1612 8.35575 21.0188C8.26193 20.8765 8.17135 20.7273 8.0804 20.5785C7.99305 20.4329 7.90247 20.2841 7.81476 20.1349C7.78241 20.0734 7.74682 20.012 7.71123 19.9505C7.64653 19.8373 7.58183 19.7237 7.51712 19.6105C7.18677 19.0181 6.87943 18.4192 6.59438 17.8203C6.53938 17.7103 6.48762 17.6003 6.43909 17.49C5.99227 16.5349 5.60369 15.5798 5.25753 14.6312C5.21547 14.5147 5.17341 14.4015 5.13136 14.2846C4.99224 13.8928 4.86248 13.5042 4.73954 13.1192C4.69101 12.9672 4.64248 12.8148 4.59719 12.6627C4.45161 12.203 4.3222 11.7465 4.19891 11.2964C4.16008 11.1541 4.1245 11.0113 4.08567 10.869C4.05979 10.7655 4.03068 10.6619 4.0048 10.5548C3.97244 10.4222 3.93685 10.2892 3.90774 10.1598C3.85597 9.94625 3.80745 9.73884 3.76216 9.53502C3.7201 9.36356 3.68451 9.1982 3.64892 9.02997C3.61334 8.86821 3.57775 8.70286 3.5454 8.53787C3.51305 8.37611 3.47746 8.21399 3.44834 8.05546C3.41599 7.89371 3.38687 7.73806 3.35776 7.57954C3.32864 7.42101 3.29952 7.26537 3.27364 7.11008C3.26717 7.09067 3.26717 7.06478 3.2607 7.04213C3.18629 6.60502 3.11836 6.18086 3.06012 5.76999C3.05689 5.76999 3.05689 5.76999 3.05689 5.76999C3.03748 5.62764 3.01806 5.48493 2.99865 5.34582C2.95659 5.05106 2.92101 4.75989 2.88866 4.48131C2.87572 4.36808 2.86277 4.25484 2.84983 4.14772C2.79484 3.63944 2.74954 3.16675 2.71396 2.73611C2.71072 2.67464 2.70425 2.61317 2.70102 2.55171C2.68808 2.40289 2.67837 2.26018 2.66866 2.1243C2.66543 2.02724 2.65896 1.93666 2.65249 1.84248C2.63631 1.57396 2.62337 1.32772 2.61367 1.10773C2.61043 1.03332 2.6072 0.965387 2.6072 0.900683C2.59426 0.505632 2.59102 0.227404 2.58778 0.0814609H2.59102C2.75925 0.0685202 3.10901 0.0458739 3.61405 0.0264629C3.68846 0.0232277 3.76611 0.019996 3.84052 0.019996C4.47174 -0.00265022 5.3039 -0.00912155 6.28488 0.0167599C6.53111 0.0199951 6.78669 0.0297019 7.05233 0.0394074C7.18498 0.0458778 7.31798 0.052343 7.45386 0.0588134C7.72597 0.0717541 8.01067 0.0879335 8.29896 0.107345C9.45787 0.184989 10.7401 0.311159 12.1032 0.515335C12.2746 0.537981 12.4465 0.563864 12.6179 0.592981C12.9644 0.647979 13.3138 0.709446 13.6668 0.77415C13.8448 0.806502 14.0231 0.838856 14.201 0.874443H14.2042C15.0364 1.04267 15.8909 1.23714 16.7521 1.4636C16.8815 1.49595 17.0077 1.52831 17.1342 1.56713C17.5681 1.6836 18.0085 1.813 18.4488 1.94924C18.5685 1.98806 18.6886 2.02689 18.8083 2.06894C19.501 2.28894 20.194 2.54164 20.8867 2.81339H20.8899C21.2656 2.96545 21.6408 3.12433 22.0133 3.28609C22.363 3.44138 22.7156 3.6035 23.0622 3.77173C23.4087 3.93996 23.7516 4.11825 24.0949 4.30265C24.1887 4.35118 24.2826 4.40295 24.3735 4.45471C26.4293 5.58127 28.3912 6.99289 30.1425 8.75391C30.314 8.92537 30.4826 9.10043 30.6508 9.27837C30.8158 9.45954 30.9812 9.64107 31.1429 9.82547C31.2238 9.91929 31.3047 10.0099 31.3856 10.1041C31.5441 10.2949 31.703 10.4894 31.8583 10.6835C31.9359 10.7806 32.0136 10.8809 32.0912 10.9815C32.1591 11.0689 32.2238 11.1562 32.295 11.2472C32.4956 11.5193 32.6901 11.7943 32.8842 12.0761C32.9489 12.1731 33.0104 12.267 33.0718 12.3644C33.1365 12.4614 33.198 12.5552 33.2595 12.6559C33.3242 12.7497 33.3856 12.85 33.4439 12.9474C33.625 13.2454 33.8033 13.5463 33.9748 13.8572C34.1463 14.1682 34.3148 14.4852 34.4734 14.8091C34.5348 14.932 34.5931 15.0517 34.6545 15.175C34.6966 15.2721 34.7419 15.3691 34.7872 15.4665C34.8389 15.5765 34.8875 15.6898 34.9392 15.8034C34.9878 15.9166 35.0363 16.0266 35.0848 16.1434C35.1819 16.3699 35.2757 16.6032 35.3695 16.8361C35.4116 16.9526 35.4569 17.069 35.4989 17.1859C35.3275 16.8588 28.3668 3.95757 7.89923 4.85767C7.88953 4.85443 7.87982 4.85443 7.87335 4.85443C7.87335 4.85767 7.87335 4.85767 7.87335 4.85767C7.87371 4.85335 7.87048 4.85336 7.87048 4.85336Z" fill="url(#paint2_linear_1_1781)"/>
<path d="M30.586 39.035C30.5822 39.0387 30.5823 39.0424 30.5786 39.0461L30.586 39.035Z" fill="url(#paint3_linear_1_1781)"/>
<path d="M44.8252 49.9239C45.0901 50.6656 45.3815 51.2616 45.6994 51.7119C46.0172 52.1358 46.5073 52.5993 47.1696 53.1027L46.8119 53.5H39.6199L39.3815 52.7848L39.9775 52.6258C40.3749 52.4934 40.653 52.3344 40.812 52.149C40.9974 51.9371 41.0901 51.6589 41.0901 51.3146C41.0901 51.1027 40.9444 50.5596 40.653 49.6854L39.8583 47.3411H33.6994L33.3815 48.3345C32.9842 49.5265 32.7855 50.4272 32.7855 51.0364C32.7855 51.6192 32.8915 52.149 33.1034 52.6258L33.3815 53.1027L33.0239 53.5H28.6531L28.3749 52.7848L28.9709 52.6258C29.6067 52.4404 30.0835 52.1887 30.4014 51.8709C30.7193 51.5265 31.0239 50.9305 31.3153 50.0828L35.3683 38.4007C35.5537 37.7385 35.6464 37.2749 35.6464 37.01C35.6464 36.4272 35.2226 36.0166 34.3749 35.7782L33.9378 35.659L34.216 34.9438H39.6199L44.8252 49.9239ZM39.461 46.2285L36.759 38.1623L34.0967 46.2285H39.461ZM62.8559 35.3809L62.4585 35.8179C61.7433 36.6921 61.134 37.606 60.6307 38.5597L57.0148 45.4735V50.202C57.0148 50.8113 57.0678 51.2748 57.1738 51.5927C57.3062 51.8841 57.5181 52.1093 57.8095 52.2682C58.1009 52.4272 58.5645 52.5993 59.2002 52.7848L58.9618 53.5H52.0082L51.6903 53.1027L52.0082 52.6258C52.4585 52.0431 52.7632 51.447 52.9221 50.8378C53.1075 50.202 53.2003 49.3543 53.2003 48.2947V45.553L49.4254 38.6391C49.0016 37.7914 48.6043 37.1424 48.2334 36.6921C47.8625 36.2153 47.399 35.7782 46.8427 35.3809L47.2003 34.9438H54.4718L54.6705 35.659L54.0744 35.8179C53.3062 35.9769 52.9221 36.2815 52.9221 36.7318C52.9221 36.8908 52.9883 37.1159 53.1208 37.4073C53.2532 37.6987 53.4519 38.0961 53.7168 38.5994L56.4188 43.6855L59.2797 38.2418C59.4916 37.8974 59.5976 37.553 59.5976 37.2087C59.5976 36.8643 59.4916 36.5729 59.2797 36.3345C59.0678 36.0696 58.8029 35.8974 58.485 35.8179L57.73 35.659L57.9685 34.9438H62.538L62.8559 35.3809ZM79.8733 46.904C79.8733 49.1821 79.2905 50.9172 78.125 52.1093C76.9594 53.2748 75.2508 53.8576 72.9991 53.8576C70.8005 53.8576 69.0786 53.2483 67.8336 52.0298C66.5886 50.8113 65.9661 49.1027 65.9661 46.904V39.7914C65.9661 38.5729 65.8601 37.6987 65.6482 37.1689C65.4363 36.6391 64.9727 36.0696 64.2575 35.4603L64.5356 34.9438H71.4892L71.7674 35.5795C71.1581 35.8974 70.721 36.1888 70.4561 36.4537C70.1912 36.6921 70.0058 37.01 69.8998 37.4073C69.8203 37.8047 69.7806 38.4007 69.7806 39.1954V47.2616C69.7806 49.0364 70.125 50.3874 70.8137 51.3146C71.5025 52.2152 72.5091 52.6656 73.8336 52.6656C75.3435 52.6656 76.5091 52.202 77.3303 51.2748C78.1514 50.3212 78.562 48.9835 78.562 47.2616V38.2418C78.562 37.4206 78.4031 36.8643 78.0852 36.5729C77.7938 36.255 77.1448 35.9504 76.1382 35.659L76.4164 34.9438H81.0256L81.3832 35.3809L81.0256 35.8179C80.5753 36.4272 80.2574 37.0497 80.072 37.6855C79.913 38.2948 79.8468 39.1159 79.8733 40.1491V46.904ZM87.4406 38.0034C87.4406 39.063 87.8115 39.9371 88.5532 40.6259C89.2949 41.2881 90.4075 42.0431 91.8909 42.8908C92.977 43.5 93.838 44.0298 94.4737 44.4802C95.1095 44.9305 95.6525 45.5 96.1029 46.1888C96.5532 46.8775 96.7783 47.6722 96.7783 48.5729C96.7783 50.2152 96.1161 51.5133 94.7916 52.4669C93.4936 53.394 91.7452 53.8576 89.5466 53.8576C87.6658 53.8576 86.1426 53.5 84.9771 52.7848C83.838 52.0695 83.2685 51.1027 83.2685 49.8841C83.2685 49.0894 83.5334 48.4669 84.0632 48.0166C84.6194 47.5398 85.3082 47.3013 86.1294 47.3013C86.7651 47.3013 87.3744 47.4603 87.9572 47.7782C87.136 48.202 86.7254 49.0364 86.7254 50.2815C86.7254 51.0232 86.9903 51.6589 87.5201 52.1887C88.0764 52.6921 88.8181 52.9437 89.7453 52.9437C90.6989 52.9437 91.4406 52.6788 91.9704 52.149C92.5267 51.6192 92.8048 50.957 92.8048 50.1623C92.8048 49.2351 92.4605 48.4801 91.7717 47.8974C91.1095 47.2881 90.0896 46.5861 88.7121 45.7914C87.6261 45.2086 86.7254 44.6656 86.0102 44.1623C85.3214 43.659 84.7387 43.0365 84.2618 42.2947C83.785 41.553 83.5466 40.6789 83.5466 39.6722C83.5466 38.1623 84.1824 36.9438 85.4539 36.0166C86.7519 35.063 88.434 34.5862 90.5002 34.5862C92.275 34.5862 93.7188 34.9305 94.8313 35.6193C95.9439 36.2815 96.5002 37.1689 96.5002 38.2815C96.5002 38.9967 96.2618 39.5663 95.785 39.9901C95.3082 40.3875 94.6591 40.5861 93.838 40.5861C93.2552 40.5861 92.6459 40.4404 92.0101 40.1491C92.3545 39.8842 92.6194 39.553 92.8048 39.1557C92.9903 38.7583 93.083 38.3477 93.083 37.9239C93.083 37.2616 92.8446 36.7054 92.3678 36.255C91.8909 35.7782 91.189 35.5398 90.2618 35.5398C89.3612 35.5398 88.6592 35.7782 88.1559 36.255C87.679 36.7318 87.4406 37.3146 87.4406 38.0034ZM115.68 48.4934C115.68 49.4205 115.72 50.1225 115.799 50.5993C115.879 51.0762 116.038 51.4868 116.276 51.8311C116.515 52.1755 116.885 52.5729 117.389 53.0232L117.071 53.5H110.077L109.839 52.7848C110.448 52.6258 110.885 52.4669 111.15 52.308C111.442 52.1225 111.627 51.8841 111.707 51.5927C111.813 51.2748 111.866 50.8113 111.866 50.202V44.6391H104.832V48.4934C104.832 49.4205 104.872 50.1358 104.952 50.6391C105.031 51.1159 105.177 51.5265 105.389 51.8709C105.627 52.1887 105.998 52.5729 106.501 53.0232L106.223 53.5H99.2298L98.9914 52.7848C99.8656 52.5464 100.422 52.2815 100.66 51.9901C100.899 51.6722 101.018 51.0762 101.018 50.202V39.8709C101.018 38.5994 100.912 37.712 100.7 37.2087C100.515 36.6789 100.038 36.0961 99.2695 35.4603L99.5874 34.9438H106.342L106.621 35.5795C105.852 36.0299 105.362 36.4537 105.15 36.851C104.938 37.2219 104.832 37.8974 104.832 38.8775V43.5265H111.866V39.8709C111.866 38.5994 111.76 37.712 111.548 37.2087C111.362 36.6789 110.885 36.0961 110.117 35.4603L110.435 34.9438H117.19L117.508 35.5795C116.74 36.0299 116.236 36.4537 115.998 36.851C115.786 37.2219 115.68 37.8974 115.68 38.8775V48.4934ZM128.446 53.8576C125.611 53.8576 123.439 52.957 121.929 51.1556C120.446 49.3543 119.704 47.0497 119.704 44.2418C119.704 41.4338 120.459 39.1292 121.969 37.3279C123.479 35.5001 125.664 34.5862 128.525 34.5862C130.353 34.5862 131.837 34.9438 132.976 35.659C134.141 36.3477 134.724 37.2616 134.724 38.4007C134.724 39.5133 134.26 40.3875 133.333 41.0232C132.406 41.659 131.241 41.9769 129.837 41.9769C130.631 41.1292 131.029 39.9769 131.029 38.5199C131.029 37.6722 130.764 36.9703 130.234 36.414C129.731 35.8312 129.068 35.5398 128.247 35.5398C126.737 35.5398 125.625 36.4007 124.909 38.1226C124.221 39.8444 123.876 41.8841 123.876 44.2418C123.876 45.7517 124.088 47.1292 124.512 48.3742C124.962 49.6192 125.598 50.6126 126.419 51.3543C127.267 52.0695 128.234 52.4272 129.32 52.4272C130.565 52.4272 131.598 52.1755 132.419 51.6722C133.267 51.1424 134.035 50.4139 134.724 49.4868L135.201 49.8444C134.486 51.0364 133.558 52.0033 132.419 52.745C131.307 53.4868 129.982 53.8576 128.446 53.8576ZM151.613 49.9239C151.878 50.6656 152.169 51.2616 152.487 51.7119C152.805 52.1358 153.295 52.5993 153.957 53.1027L153.6 53.5H146.408L146.169 52.7848L146.765 52.6258C147.163 52.4934 147.441 52.3344 147.6 52.149C147.785 51.9371 147.878 51.6589 147.878 51.3146C147.878 51.1027 147.732 50.5596 147.441 49.6854L146.646 47.3411H140.487L140.169 48.3345C139.772 49.5265 139.573 50.4272 139.573 51.0364C139.573 51.6192 139.679 52.149 139.891 52.6258L140.169 53.1027L139.812 53.5H135.441L135.163 52.7848L135.759 52.6258C136.394 52.4404 136.871 52.1887 137.189 51.8709C137.507 51.5265 137.812 50.9305 138.103 50.0828L142.156 38.4007C142.341 37.7385 142.434 37.2749 142.434 37.01C142.434 36.4272 142.01 36.0166 141.163 35.7782L140.726 35.659L141.004 34.9438H146.408L151.613 49.9239ZM146.249 46.2285L143.547 38.1623L140.884 46.2285H146.249ZM172.385 52.149C171.432 53.2881 170.187 53.8576 168.65 53.8576C167.697 53.8576 166.942 53.6457 166.385 53.2219C165.856 52.7715 165.392 52.0166 164.995 50.957L163.842 47.4603C163.577 46.7451 163.339 46.2285 163.127 45.9106C162.915 45.5663 162.584 45.3014 162.134 45.1159L161.458 44.7583L161.538 44.361C161.75 44.3874 162.028 44.4007 162.372 44.4007C162.69 44.4007 162.915 44.3874 163.048 44.361C164.028 44.202 164.796 43.7517 165.352 43.01C165.908 42.2682 166.187 41.3146 166.187 40.1491C166.187 38.7451 165.856 37.6325 165.193 36.8113C164.531 35.9636 163.657 35.5398 162.571 35.5398C161.379 35.5398 160.783 36.0961 160.783 37.2087V48.2947C160.783 49.3278 160.862 50.1623 161.021 50.798C161.207 51.4073 161.524 52.0166 161.975 52.6258L162.293 53.1027L161.975 53.5H155.061L154.783 52.7848C155.445 52.5993 155.922 52.4272 156.213 52.2682C156.505 52.0828 156.703 51.8444 156.809 51.553C156.915 51.2616 156.968 50.8113 156.968 50.202V39.6325C156.968 38.7053 156.889 38.0034 156.73 37.5265C156.597 37.0232 156.266 36.6126 155.736 36.2948L155.26 36.0166L155.418 35.5001C156.24 35.2352 157.286 35.0232 158.558 34.8643C159.856 34.6789 161.008 34.5862 162.014 34.5862C164.531 34.5862 166.518 35.0895 167.975 36.0961C169.432 37.1027 170.16 38.4802 170.16 40.2285C170.16 41.4471 169.763 42.5331 168.968 43.4868C168.2 44.4139 167.206 45.0365 165.988 45.3543C166.942 45.7782 167.604 46.4934 167.975 47.5L169.365 51.394C169.577 52.0298 169.988 52.3477 170.597 52.3477C171.074 52.3477 171.564 52.1358 172.067 51.7119L172.385 52.149ZM181.691 50.202C181.691 50.8113 181.744 51.2748 181.85 51.5927C181.982 51.8841 182.194 52.1093 182.486 52.2682C182.777 52.4272 183.254 52.5993 183.916 52.7848L183.638 53.5H176.724L176.406 53.1027L176.724 52.6258C177.174 52.0166 177.479 51.4073 177.638 50.798C177.823 50.1623 177.903 49.3278 177.876 48.2947V37.606C177.876 36.9438 177.81 36.5067 177.678 36.2948C177.572 36.0563 177.347 35.9371 177.002 35.9371H176.565C175.665 35.9371 174.989 36.2153 174.539 36.7716C174.088 37.3014 173.625 38.2683 173.148 39.6722L172.353 39.3941V34.4272L172.751 34.0696L173.227 34.4272C173.731 34.7716 174.711 34.9438 176.168 34.9438H183.439C184.896 34.9438 185.876 34.7716 186.38 34.4272L186.857 34.0696L187.294 34.4272V39.3941L186.459 39.6722C185.956 38.2153 185.479 37.2352 185.029 36.7318C184.605 36.202 183.956 35.9371 183.082 35.9371H182.565C182.221 35.9371 181.982 36.0563 181.85 36.2948C181.744 36.5067 181.691 36.9438 181.691 37.606V50.202Z" fill="#43014D"/>
<defs>
<linearGradient id="paint0_linear_1_1781" x1="47.6747" y1="34.0808" x2="14.521" y2="4.43093" gradientUnits="userSpaceOnUse">
<stop stop-color="#AF4859"/>
<stop offset="0.4916" stop-color="#EB8D6B"/>
<stop offset="1" stop-color="#FFD297"/>
</linearGradient>
<linearGradient id="paint1_linear_1_1781" x1="36.4908" y1="29.6302" x2="58.015" y2="4.32979" gradientUnits="userSpaceOnUse">
<stop stop-color="#43014D"/>
<stop offset="0.4916" stop-color="#AF4859"/>
<stop offset="1" stop-color="#FFD297"/>
</linearGradient>
<linearGradient id="paint2_linear_1_1781" x1="-3.47336" y1="42.1794" x2="27.193" y2="6.13312" gradientUnits="userSpaceOnUse">
<stop stop-color="#43014D"/>
<stop offset="1" stop-color="#BE9DBA"/>
</linearGradient>
<linearGradient id="paint3_linear_1_1781" x1="30.5785" y1="39.0406" x2="30.5859" y2="39.0406" gradientUnits="userSpaceOnUse">
<stop stop-color="#00989F"/>
<stop offset="1" stop-color="#D6F1A0"/>
</linearGradient>
</defs>
</svg>
